<svg id="visual" viewBox="0 0 900 600" width="900" height="600" xmlns="http://www.w3.org/2000/svg" xmlns:xlink="http://www.w3.org/1999/xlink" version="1.1"><rect x="0" y="0" width="900" height="600" fill="#002233"></rect><path d="M0 509L21.5 513.8C43 518.7 86 528.3 128.8 528.3C171.7 528.3 214.3 518.7 257.2 519C300 519.3 343 529.7 385.8 526.3C428.7 523 471.3 506 514.2 497C557 488 600 487 642.8 494.3C685.7 501.7 728.3 517.3 771.2 525C814 532.7 857 532.3 878.5 532.2L900 532L900 601L878.5 601C857 601 814 601 771.2 601C728.3 601 685.7 601 642.8 601C600 601 557 601 514.2 601C471.3 601 428.7 601 385.8 601C343 601 300 601 257.2 601C214.3 601 171.7 601 128.8 601C86 601 43 601 21.5 601L0 601Z" fill="#0066FF" stroke-linecap="round" stroke-linejoin="miter"></path></svg>