<svg id="visual" viewBox="0 0 1920 1080" width="1920" height="1080" xmlns="http://www.w3.org/2000/svg" xmlns:xlink="http://www.w3.org/1999/xlink" version="1.1"><path d="M0 1007L45.7 1006.7C91.3 1006.3 182.7 1005.7 274.2 1011.3C365.7 1017 457.3 1029 548.8 1035.7C640.3 1042.3 731.7 1043.7 823 1042.2C914.3 1040.7 1005.7 1036.3 1097 1029.2C1188.3 1022 1279.7 1012 1371.2 1009.8C1462.7 1007.7 1554.3 1013.3 1645.8 1021.3C1737.3 1029.3 1828.7 1039.7 1874.3 1044.8L1920 1050L1920 1081L1874.3 1081C1828.7 1081 1737.3 1081 1645.8 1081C1554.3 1081 1462.7 1081 1371.2 1081C1279.7 1081 1188.3 1081 1097 1081C1005.7 1081 914.3 1081 823 1081C731.7 1081 640.3 1081 548.8 1081C457.3 1081 365.7 1081 274.2 1081C182.7 1081 91.3 1081 45.7 1081L0 1081Z" fill="#0066FF" stroke-linecap="round" stroke-linejoin="miter"></path></svg>