<svg id="visual" viewBox="0 0 1920 1080" width="1920" height="1080" xmlns="http://www.w3.org/2000/svg" xmlns:xlink="http://www.w3.org/1999/xlink" version="1.1"><path d="M0 1044L40 1042.2C80 1040.3 160 1036.7 240 1037C320 1037.3 400 1041.7 480 1035.7C560 1029.7 640 1013.3 720 1005.3C800 997.3 880 997.7 960 1003.5C1040 1009.3 1120 1020.7 1200 1029C1280 1037.3 1360 1042.7 1440 1038.5C1520 1034.3 1600 1020.7 1680 1012.3C1760 1004 1840 1001 1880 999.5L1920 998L1920 1081L1880 1081C1840 1081 1760 1081 1680 1081C1600 1081 1520 1081 1440 1081C1360 1081 1280 1081 1200 1081C1120 1081 1040 1081 960 1081C880 1081 800 1081 720 1081C640 1081 560 1081 480 1081C400 1081 320 1081 240 1081C160 1081 80 1081 40 1081L0 1081Z" fill="#0066FF" stroke-linecap="round" stroke-linejoin="miter"></path></svg>